<?xml version="1.0" encoding="UTF-8" standalone="no"?>
<!DOCTYPE svg PUBLIC "-//W3C//DTD SVG 1.1//EN"
 "http://www.w3.org/Graphics/SVG/1.1/DTD/svg11.dtd">
<!-- Generated by graphviz version 2.47.0 (20210316.0004)
 -->
<!-- Title: dependencies Pages: 1 -->
<svg width="504pt" height="284pt"
 viewBox="0.00 0.00 504.00 284.00" xmlns="http://www.w3.org/2000/svg" xmlns:xlink="http://www.w3.org/1999/xlink">
<g id="graph0" class="graph" transform="scale(1 1) rotate(0) translate(4 280)">
<title>dependencies</title>
<polygon fill="white" stroke="transparent" points="-4,4 -4,-280 500,-280 500,4 -4,4"/>
<text text-anchor="start" x="227.01" y="-42.4" font-family="sans-serif" font-weight="bold" font-size="14.00">Legend</text>
<polygon fill="#ffffb3" stroke="transparent" points="14,-10 14,-30 34,-30 34,-10 14,-10"/>
<text text-anchor="start" x="37.63" y="-15.4" font-family="sans-serif" font-size="14.00"> &#160;Declarations</text>
<polygon fill="#8dd3c7" stroke="transparent" points="127,-10 127,-30 147,-30 147,-10 127,-10"/>
<text text-anchor="start" x="150.73" y="-15.4" font-family="sans-serif" font-size="14.00"> &#160;Module</text>
<polygon fill="#80b1d3" stroke="transparent" points="213,-10 213,-30 233,-30 233,-10 213,-10"/>
<text text-anchor="start" x="236.78" y="-15.4" font-family="sans-serif" font-size="14.00"> &#160;Bootstrap</text>
<polygon fill="#fdb462" stroke="transparent" points="310,-10 310,-30 330,-30 330,-10 310,-10"/>
<text text-anchor="start" x="333.67" y="-15.4" font-family="sans-serif" font-size="14.00"> &#160;Providers</text>
<polygon fill="#fb8072" stroke="transparent" points="406,-10 406,-30 426,-30 426,-10 406,-10"/>
<text text-anchor="start" x="429.73" y="-15.4" font-family="sans-serif" font-size="14.00"> &#160;Exports</text>
<g id="clust1" class="cluster">
<title>cluster_AirlinesModule</title>
<polygon fill="none" stroke="black" stroke-dasharray="1,5" points="93,-70 93,-268 403,-268 403,-70 93,-70"/>
</g>
<g id="clust4" class="cluster">
<title>cluster_AirlinesModule_exports</title>
<polygon fill="none" stroke="black" points="181,-208 181,-260 303,-260 303,-208 181,-208"/>
</g>
<g id="clust6" class="cluster">
<title>cluster_AirlinesModule_providers</title>
<polygon fill="none" stroke="black" points="101,-78 101,-130 395,-130 395,-78 101,-78"/>
</g>
<!-- AirlinesService  -->
<g id="node1" class="node">
<title>AirlinesService </title>
<polygon fill="#fb8072" stroke="black" points="295.08,-252 188.92,-252 188.92,-216 295.08,-216 295.08,-252"/>
<text text-anchor="middle" x="242" y="-229.8" font-family="Times,serif" font-size="14.00">AirlinesService </text>
</g>
<!-- AirlinesModule -->
<g id="node2" class="node">
<title>AirlinesModule</title>
<polygon fill="#8dd3c7" stroke="black" points="294.15,-187 291.15,-191 270.15,-191 267.15,-187 189.85,-187 189.85,-151 294.15,-151 294.15,-187"/>
<text text-anchor="middle" x="242" y="-164.8" font-family="Times,serif" font-size="14.00">AirlinesModule</text>
</g>
<!-- AirlinesModule&#45;&gt;AirlinesService  -->
<g id="edge1" class="edge">
<title>AirlinesModule&#45;&gt;AirlinesService </title>
<path fill="none" stroke="black" stroke-dasharray="5,2" d="M242,-187.11C242,-187.11 242,-205.99 242,-205.99"/>
<polygon fill="black" stroke="black" points="238.5,-205.99 242,-215.99 245.5,-205.99 238.5,-205.99"/>
</g>
<!-- AirlinesService -->
<g id="node3" class="node">
<title>AirlinesService</title>
<ellipse fill="#fdb462" stroke="black" cx="316" cy="-104" rx="71.2" ry="18"/>
<text text-anchor="middle" x="316" y="-99.8" font-family="Times,serif" font-size="14.00">AirlinesService</text>
</g>
<!-- AirlinesService&#45;&gt;AirlinesModule -->
<g id="edge2" class="edge">
<title>AirlinesService&#45;&gt;AirlinesModule</title>
<path fill="none" stroke="black" d="M269.61,-117.78C269.61,-117.78 269.61,-140.55 269.61,-140.55"/>
<polygon fill="black" stroke="black" points="266.11,-140.55 269.61,-150.55 273.11,-140.55 266.11,-140.55"/>
</g>
<!-- FilesService -->
<g id="node4" class="node">
<title>FilesService</title>
<ellipse fill="#fdb462" stroke="black" cx="168" cy="-104" rx="58.54" ry="18"/>
<text text-anchor="middle" x="168" y="-99.8" font-family="Times,serif" font-size="14.00">FilesService</text>
</g>
<!-- FilesService&#45;&gt;AirlinesModule -->
<g id="edge3" class="edge">
<title>FilesService&#45;&gt;AirlinesModule</title>
<path fill="none" stroke="black" d="M208.22,-117.15C208.22,-117.15 208.22,-140.69 208.22,-140.69"/>
<polygon fill="black" stroke="black" points="204.72,-140.69 208.22,-150.69 211.72,-140.69 204.72,-140.69"/>
</g>
</g>
</svg>
