<?xml version="1.0" encoding="UTF-8" standalone="no"?>
<!DOCTYPE svg PUBLIC "-//W3C//DTD SVG 1.1//EN"
 "http://www.w3.org/Graphics/SVG/1.1/DTD/svg11.dtd">
<!-- Generated by graphviz version 2.47.0 (20210316.0004)
 -->
<!-- Title: dependencies Pages: 1 -->
<svg width="680pt" height="284pt"
 viewBox="0.00 0.00 680.00 284.00" xmlns="http://www.w3.org/2000/svg" xmlns:xlink="http://www.w3.org/1999/xlink">
<g id="graph0" class="graph" transform="scale(1 1) rotate(0) translate(4 280)">
<title>dependencies</title>
<polygon fill="white" stroke="transparent" points="-4,4 -4,-280 676,-280 676,4 -4,4"/>
<text text-anchor="start" x="315.01" y="-42.4" font-family="sans-serif" font-weight="bold" font-size="14.00">Legend</text>
<polygon fill="#ffffb3" stroke="transparent" points="102,-10 102,-30 122,-30 122,-10 102,-10"/>
<text text-anchor="start" x="125.63" y="-15.4" font-family="sans-serif" font-size="14.00"> &#160;Declarations</text>
<polygon fill="#8dd3c7" stroke="transparent" points="215,-10 215,-30 235,-30 235,-10 215,-10"/>
<text text-anchor="start" x="238.73" y="-15.4" font-family="sans-serif" font-size="14.00"> &#160;Module</text>
<polygon fill="#80b1d3" stroke="transparent" points="301,-10 301,-30 321,-30 321,-10 301,-10"/>
<text text-anchor="start" x="324.78" y="-15.4" font-family="sans-serif" font-size="14.00"> &#160;Bootstrap</text>
<polygon fill="#fdb462" stroke="transparent" points="398,-10 398,-30 418,-30 418,-10 398,-10"/>
<text text-anchor="start" x="421.67" y="-15.4" font-family="sans-serif" font-size="14.00"> &#160;Providers</text>
<polygon fill="#fb8072" stroke="transparent" points="494,-10 494,-30 514,-30 514,-10 494,-10"/>
<text text-anchor="start" x="517.73" y="-15.4" font-family="sans-serif" font-size="14.00"> &#160;Exports</text>
<g id="clust1" class="cluster">
<title>cluster_TicketsModule</title>
<polygon fill="none" stroke="black" stroke-dasharray="1,5" points="8,-70 8,-268 664,-268 664,-70 8,-70"/>
</g>
<g id="clust6" class="cluster">
<title>cluster_TicketsModule_providers</title>
<polygon fill="none" stroke="black" points="504,-78 504,-130 656,-130 656,-78 504,-78"/>
</g>
<g id="clust4" class="cluster">
<title>cluster_TicketsModule_exports</title>
<polygon fill="none" stroke="black" points="244,-208 244,-260 362,-260 362,-208 244,-208"/>
</g>
<g id="clust3" class="cluster">
<title>cluster_TicketsModule_imports</title>
<polygon fill="none" stroke="black" points="16,-78 16,-130 496,-130 496,-78 16,-78"/>
</g>
<!-- AirplanesModule -->
<g id="node1" class="node">
<title>AirplanesModule</title>
<polygon fill="#8dd3c7" stroke="black" points="487.97,-122 484.97,-126 463.97,-126 460.97,-122 374.03,-122 374.03,-86 487.97,-86 487.97,-122"/>
<text text-anchor="middle" x="431" y="-99.8" font-family="Times,serif" font-size="14.00">AirplanesModule</text>
</g>
<!-- TicketsModule -->
<g id="node5" class="node">
<title>TicketsModule</title>
<polygon fill="#8dd3c7" stroke="black" points="353.26,-187 350.26,-191 329.26,-191 326.26,-187 252.74,-187 252.74,-151 353.26,-151 353.26,-187"/>
<text text-anchor="middle" x="303" y="-164.8" font-family="Times,serif" font-size="14.00">TicketsModule</text>
</g>
<!-- AirplanesModule&#45;&gt;TicketsModule -->
<g id="edge1" class="edge">
<title>AirplanesModule&#45;&gt;TicketsModule</title>
<path fill="none" stroke="black" d="M431,-122.02C431,-139.37 431,-163 431,-163 431,-163 363.59,-163 363.59,-163"/>
<polygon fill="black" stroke="black" points="363.59,-159.5 353.59,-163 363.59,-166.5 363.59,-159.5"/>
</g>
<!-- AirportsModule -->
<g id="node2" class="node">
<title>AirportsModule</title>
<polygon fill="#8dd3c7" stroke="black" points="356.2,-122 353.2,-126 332.2,-126 329.2,-122 249.8,-122 249.8,-86 356.2,-86 356.2,-122"/>
<text text-anchor="middle" x="303" y="-99.8" font-family="Times,serif" font-size="14.00">AirportsModule</text>
</g>
<!-- AirportsModule&#45;&gt;TicketsModule -->
<g id="edge2" class="edge">
<title>AirportsModule&#45;&gt;TicketsModule</title>
<path fill="none" stroke="black" d="M303,-122.11C303,-122.11 303,-140.99 303,-140.99"/>
<polygon fill="black" stroke="black" points="299.5,-140.99 303,-150.99 306.5,-140.99 299.5,-140.99"/>
</g>
<!-- FlightsModule -->
<g id="node3" class="node">
<title>FlightsModule</title>
<polygon fill="#8dd3c7" stroke="black" points="232.45,-122 229.45,-126 208.45,-126 205.45,-122 133.55,-122 133.55,-86 232.45,-86 232.45,-122"/>
<text text-anchor="middle" x="183" y="-99.8" font-family="Times,serif" font-size="14.00">FlightsModule</text>
</g>
<!-- FlightsModule&#45;&gt;TicketsModule -->
<g id="edge3" class="edge">
<title>FlightsModule&#45;&gt;TicketsModule</title>
<path fill="none" stroke="black" d="M183,-122.02C183,-139.37 183,-163 183,-163 183,-163 242.46,-163 242.46,-163"/>
<polygon fill="black" stroke="black" points="242.46,-166.5 252.46,-163 242.46,-159.5 242.46,-166.5"/>
</g>
<!-- UsersModule -->
<g id="node4" class="node">
<title>UsersModule</title>
<polygon fill="#8dd3c7" stroke="black" points="115.92,-122 112.92,-126 91.92,-126 88.92,-122 24.08,-122 24.08,-86 115.92,-86 115.92,-122"/>
<text text-anchor="middle" x="70" y="-99.8" font-family="Times,serif" font-size="14.00">UsersModule</text>
</g>
<!-- UsersModule&#45;&gt;TicketsModule -->
<g id="edge4" class="edge">
<title>UsersModule&#45;&gt;TicketsModule</title>
<path fill="none" stroke="black" d="M70,-122.28C70,-143.32 70,-175 70,-175 70,-175 242.73,-175 242.73,-175"/>
<polygon fill="black" stroke="black" points="242.73,-178.5 252.73,-175 242.73,-171.5 242.73,-178.5"/>
</g>
<!-- TicketsService  -->
<g id="node6" class="node">
<title>TicketsService </title>
<polygon fill="#fb8072" stroke="black" points="354.19,-252 251.81,-252 251.81,-216 354.19,-216 354.19,-252"/>
<text text-anchor="middle" x="303" y="-229.8" font-family="Times,serif" font-size="14.00">TicketsService </text>
</g>
<!-- TicketsModule&#45;&gt;TicketsService  -->
<g id="edge5" class="edge">
<title>TicketsModule&#45;&gt;TicketsService </title>
<path fill="none" stroke="black" stroke-dasharray="5,2" d="M303,-187.11C303,-187.11 303,-205.99 303,-205.99"/>
<polygon fill="black" stroke="black" points="299.5,-205.99 303,-215.99 306.5,-205.99 299.5,-205.99"/>
</g>
<!-- TicketsService -->
<g id="node7" class="node">
<title>TicketsService</title>
<ellipse fill="#fdb462" stroke="black" cx="580" cy="-104" rx="68.33" ry="18"/>
<text text-anchor="middle" x="580" y="-99.8" font-family="Times,serif" font-size="14.00">TicketsService</text>
</g>
<!-- TicketsService&#45;&gt;TicketsModule -->
<g id="edge6" class="edge">
<title>TicketsService&#45;&gt;TicketsModule</title>
<path fill="none" stroke="black" d="M580,-122.28C580,-143.32 580,-175 580,-175 580,-175 363.48,-175 363.48,-175"/>
<polygon fill="black" stroke="black" points="363.48,-171.5 353.48,-175 363.48,-178.5 363.48,-171.5"/>
</g>
</g>
</svg>
