<?xml version="1.0" encoding="UTF-8" standalone="no"?>
<!DOCTYPE svg PUBLIC "-//W3C//DTD SVG 1.1//EN"
 "http://www.w3.org/Graphics/SVG/1.1/DTD/svg11.dtd">
<!-- Generated by graphviz version 2.47.0 (20210316.0004)
 -->
<!-- Title: dependencies Pages: 1 -->
<svg width="680pt" height="284pt"
 viewBox="0.00 0.00 680.00 284.00" xmlns="http://www.w3.org/2000/svg" xmlns:xlink="http://www.w3.org/1999/xlink">
<g id="graph0" class="graph" transform="scale(1 1) rotate(0) translate(4 280)">
<title>dependencies</title>
<polygon fill="white" stroke="transparent" points="-4,4 -4,-280 676,-280 676,4 -4,4"/>
<text text-anchor="start" x="315.01" y="-42.4" font-family="sans-serif" font-weight="bold" font-size="14.00">Legend</text>
<polygon fill="#ffffb3" stroke="transparent" points="102,-10 102,-30 122,-30 122,-10 102,-10"/>
<text text-anchor="start" x="125.63" y="-15.4" font-family="sans-serif" font-size="14.00"> &#160;Declarations</text>
<polygon fill="#8dd3c7" stroke="transparent" points="215,-10 215,-30 235,-30 235,-10 215,-10"/>
<text text-anchor="start" x="238.73" y="-15.4" font-family="sans-serif" font-size="14.00"> &#160;Module</text>
<polygon fill="#80b1d3" stroke="transparent" points="301,-10 301,-30 321,-30 321,-10 301,-10"/>
<text text-anchor="start" x="324.78" y="-15.4" font-family="sans-serif" font-size="14.00"> &#160;Bootstrap</text>
<polygon fill="#fdb462" stroke="transparent" points="398,-10 398,-30 418,-30 418,-10 398,-10"/>
<text text-anchor="start" x="421.67" y="-15.4" font-family="sans-serif" font-size="14.00"> &#160;Providers</text>
<polygon fill="#fb8072" stroke="transparent" points="494,-10 494,-30 514,-30 514,-10 494,-10"/>
<text text-anchor="start" x="517.73" y="-15.4" font-family="sans-serif" font-size="14.00"> &#160;Exports</text>
<g id="clust1" class="cluster">
<title>cluster_TicketsModule</title>
<polygon fill="none" stroke="black" stroke-dasharray="1,5" points="8,-70 8,-268 664,-268 664,-70 8,-70"/>
</g>
<g id="clust4" class="cluster">
<title>cluster_TicketsModule_exports</title>
<polygon fill="none" stroke="black" points="284,-208 284,-260 402,-260 402,-208 284,-208"/>
</g>
<g id="clust3" class="cluster">
<title>cluster_TicketsModule_imports</title>
<polygon fill="none" stroke="black" points="176,-78 176,-130 656,-130 656,-78 176,-78"/>
</g>
<g id="clust6" class="cluster">
<title>cluster_TicketsModule_providers</title>
<polygon fill="none" stroke="black" points="16,-78 16,-130 168,-130 168,-78 16,-78"/>
</g>
<!-- AirplanesModule -->
<g id="node1" class="node">
<title>AirplanesModule</title>
<polygon fill="#8dd3c7" stroke="black" points="647.97,-122 644.97,-126 623.97,-126 620.97,-122 534.03,-122 534.03,-86 647.97,-86 647.97,-122"/>
<text text-anchor="middle" x="591" y="-99.8" font-family="Times,serif" font-size="14.00">AirplanesModule</text>
</g>
<!-- TicketsModule -->
<g id="node5" class="node">
<title>TicketsModule</title>
<polygon fill="#8dd3c7" stroke="black" points="393.26,-187 390.26,-191 369.26,-191 366.26,-187 292.74,-187 292.74,-151 393.26,-151 393.26,-187"/>
<text text-anchor="middle" x="343" y="-164.8" font-family="Times,serif" font-size="14.00">TicketsModule</text>
</g>
<!-- AirplanesModule&#45;&gt;TicketsModule -->
<g id="edge1" class="edge">
<title>AirplanesModule&#45;&gt;TicketsModule</title>
<path fill="none" stroke="black" d="M591,-122.28C591,-143.32 591,-175 591,-175 591,-175 403.49,-175 403.49,-175"/>
<polygon fill="black" stroke="black" points="403.49,-171.5 393.49,-175 403.49,-178.5 403.49,-171.5"/>
</g>
<!-- AirportsModule -->
<g id="node2" class="node">
<title>AirportsModule</title>
<polygon fill="#8dd3c7" stroke="black" points="516.2,-122 513.2,-126 492.2,-126 489.2,-122 409.8,-122 409.8,-86 516.2,-86 516.2,-122"/>
<text text-anchor="middle" x="463" y="-99.8" font-family="Times,serif" font-size="14.00">AirportsModule</text>
</g>
<!-- AirportsModule&#45;&gt;TicketsModule -->
<g id="edge2" class="edge">
<title>AirportsModule&#45;&gt;TicketsModule</title>
<path fill="none" stroke="black" d="M463,-122.02C463,-139.37 463,-163 463,-163 463,-163 403.54,-163 403.54,-163"/>
<polygon fill="black" stroke="black" points="403.54,-159.5 393.54,-163 403.54,-166.5 403.54,-159.5"/>
</g>
<!-- FlightsModule -->
<g id="node3" class="node">
<title>FlightsModule</title>
<polygon fill="#8dd3c7" stroke="black" points="392.45,-122 389.45,-126 368.45,-126 365.45,-122 293.55,-122 293.55,-86 392.45,-86 392.45,-122"/>
<text text-anchor="middle" x="343" y="-99.8" font-family="Times,serif" font-size="14.00">FlightsModule</text>
</g>
<!-- FlightsModule&#45;&gt;TicketsModule -->
<g id="edge3" class="edge">
<title>FlightsModule&#45;&gt;TicketsModule</title>
<path fill="none" stroke="black" d="M343,-122.11C343,-122.11 343,-140.99 343,-140.99"/>
<polygon fill="black" stroke="black" points="339.5,-140.99 343,-150.99 346.5,-140.99 339.5,-140.99"/>
</g>
<!-- UsersModule -->
<g id="node4" class="node">
<title>UsersModule</title>
<polygon fill="#8dd3c7" stroke="black" points="275.92,-122 272.92,-126 251.92,-126 248.92,-122 184.08,-122 184.08,-86 275.92,-86 275.92,-122"/>
<text text-anchor="middle" x="230" y="-99.8" font-family="Times,serif" font-size="14.00">UsersModule</text>
</g>
<!-- UsersModule&#45;&gt;TicketsModule -->
<g id="edge4" class="edge">
<title>UsersModule&#45;&gt;TicketsModule</title>
<path fill="none" stroke="black" d="M230,-122.02C230,-139.37 230,-163 230,-163 230,-163 282.45,-163 282.45,-163"/>
<polygon fill="black" stroke="black" points="282.45,-166.5 292.45,-163 282.45,-159.5 282.45,-166.5"/>
</g>
<!-- TicketsService  -->
<g id="node6" class="node">
<title>TicketsService </title>
<polygon fill="#fb8072" stroke="black" points="394.19,-252 291.81,-252 291.81,-216 394.19,-216 394.19,-252"/>
<text text-anchor="middle" x="343" y="-229.8" font-family="Times,serif" font-size="14.00">TicketsService </text>
</g>
<!-- TicketsModule&#45;&gt;TicketsService  -->
<g id="edge5" class="edge">
<title>TicketsModule&#45;&gt;TicketsService </title>
<path fill="none" stroke="black" stroke-dasharray="5,2" d="M343,-187.11C343,-187.11 343,-205.99 343,-205.99"/>
<polygon fill="black" stroke="black" points="339.5,-205.99 343,-215.99 346.5,-205.99 339.5,-205.99"/>
</g>
<!-- TicketsService -->
<g id="node7" class="node">
<title>TicketsService</title>
<ellipse fill="#fdb462" stroke="black" cx="92" cy="-104" rx="68.33" ry="18"/>
<text text-anchor="middle" x="92" y="-99.8" font-family="Times,serif" font-size="14.00">TicketsService</text>
</g>
<!-- TicketsService&#45;&gt;TicketsModule -->
<g id="edge6" class="edge">
<title>TicketsService&#45;&gt;TicketsModule</title>
<path fill="none" stroke="black" d="M92,-122.28C92,-143.32 92,-175 92,-175 92,-175 282.51,-175 282.51,-175"/>
<polygon fill="black" stroke="black" points="282.51,-178.5 292.51,-175 282.51,-171.5 282.51,-178.5"/>
</g>
</g>
</svg>
