<?xml version="1.0" encoding="UTF-8" standalone="no"?>
<!DOCTYPE svg PUBLIC "-//W3C//DTD SVG 1.1//EN"
 "http://www.w3.org/Graphics/SVG/1.1/DTD/svg11.dtd">
<!-- Generated by graphviz version 2.47.0 (20210316.0004)
 -->
<!-- Title: dependencies Pages: 1 -->
<svg width="504pt" height="284pt"
 viewBox="0.00 0.00 504.00 284.00" xmlns="http://www.w3.org/2000/svg" xmlns:xlink="http://www.w3.org/1999/xlink">
<g id="graph0" class="graph" transform="scale(1 1) rotate(0) translate(4 280)">
<title>dependencies</title>
<polygon fill="white" stroke="transparent" points="-4,4 -4,-280 500,-280 500,4 -4,4"/>
<text text-anchor="start" x="227.01" y="-42.4" font-family="sans-serif" font-weight="bold" font-size="14.00">Legend</text>
<polygon fill="#ffffb3" stroke="transparent" points="14,-10 14,-30 34,-30 34,-10 14,-10"/>
<text text-anchor="start" x="37.63" y="-15.4" font-family="sans-serif" font-size="14.00"> &#160;Declarations</text>
<polygon fill="#8dd3c7" stroke="transparent" points="127,-10 127,-30 147,-30 147,-10 127,-10"/>
<text text-anchor="start" x="150.73" y="-15.4" font-family="sans-serif" font-size="14.00"> &#160;Module</text>
<polygon fill="#80b1d3" stroke="transparent" points="213,-10 213,-30 233,-30 233,-10 213,-10"/>
<text text-anchor="start" x="236.78" y="-15.4" font-family="sans-serif" font-size="14.00"> &#160;Bootstrap</text>
<polygon fill="#fdb462" stroke="transparent" points="310,-10 310,-30 330,-30 330,-10 310,-10"/>
<text text-anchor="start" x="333.67" y="-15.4" font-family="sans-serif" font-size="14.00"> &#160;Providers</text>
<polygon fill="#fb8072" stroke="transparent" points="406,-10 406,-30 426,-30 426,-10 406,-10"/>
<text text-anchor="start" x="429.73" y="-15.4" font-family="sans-serif" font-size="14.00"> &#160;Exports</text>
<g id="clust1" class="cluster">
<title>cluster_AirlinesModule</title>
<polygon fill="none" stroke="black" stroke-dasharray="1,5" points="106,-70 106,-268 390,-268 390,-70 106,-70"/>
</g>
<g id="clust3" class="cluster">
<title>cluster_AirlinesModule_imports</title>
<polygon fill="none" stroke="black" points="280,-78 280,-130 382,-130 382,-78 280,-78"/>
</g>
<g id="clust4" class="cluster">
<title>cluster_AirlinesModule_exports</title>
<polygon fill="none" stroke="black" points="196,-208 196,-260 318,-260 318,-208 196,-208"/>
</g>
<g id="clust6" class="cluster">
<title>cluster_AirlinesModule_providers</title>
<polygon fill="none" stroke="black" points="114,-78 114,-130 272,-130 272,-78 114,-78"/>
</g>
<!-- FilesModule -->
<g id="node1" class="node">
<title>FilesModule</title>
<polygon fill="#8dd3c7" stroke="black" points="374.27,-122 371.27,-126 350.27,-126 347.27,-122 287.73,-122 287.73,-86 374.27,-86 374.27,-122"/>
<text text-anchor="middle" x="331" y="-99.8" font-family="Times,serif" font-size="14.00">FilesModule</text>
</g>
<!-- AirlinesModule -->
<g id="node2" class="node">
<title>AirlinesModule</title>
<polygon fill="#8dd3c7" stroke="black" points="309.15,-187 306.15,-191 285.15,-191 282.15,-187 204.85,-187 204.85,-151 309.15,-151 309.15,-187"/>
<text text-anchor="middle" x="257" y="-164.8" font-family="Times,serif" font-size="14.00">AirlinesModule</text>
</g>
<!-- FilesModule&#45;&gt;AirlinesModule -->
<g id="edge1" class="edge">
<title>FilesModule&#45;&gt;AirlinesModule</title>
<path fill="none" stroke="black" d="M298.47,-122.11C298.47,-122.11 298.47,-140.99 298.47,-140.99"/>
<polygon fill="black" stroke="black" points="294.97,-140.99 298.47,-150.99 301.97,-140.99 294.97,-140.99"/>
</g>
<!-- AirlinesService  -->
<g id="node3" class="node">
<title>AirlinesService </title>
<polygon fill="#fb8072" stroke="black" points="310.08,-252 203.92,-252 203.92,-216 310.08,-216 310.08,-252"/>
<text text-anchor="middle" x="257" y="-229.8" font-family="Times,serif" font-size="14.00">AirlinesService </text>
</g>
<!-- AirlinesModule&#45;&gt;AirlinesService  -->
<g id="edge2" class="edge">
<title>AirlinesModule&#45;&gt;AirlinesService </title>
<path fill="none" stroke="black" stroke-dasharray="5,2" d="M257,-187.11C257,-187.11 257,-205.99 257,-205.99"/>
<polygon fill="black" stroke="black" points="253.5,-205.99 257,-215.99 260.5,-205.99 253.5,-205.99"/>
</g>
<!-- AirlinesService -->
<g id="node4" class="node">
<title>AirlinesService</title>
<ellipse fill="#fdb462" stroke="black" cx="193" cy="-104" rx="71.2" ry="18"/>
<text text-anchor="middle" x="193" y="-99.8" font-family="Times,serif" font-size="14.00">AirlinesService</text>
</g>
<!-- AirlinesService&#45;&gt;AirlinesModule -->
<g id="edge3" class="edge">
<title>AirlinesService&#45;&gt;AirlinesModule</title>
<path fill="none" stroke="black" d="M234.39,-118.75C234.39,-118.75 234.39,-140.59 234.39,-140.59"/>
<polygon fill="black" stroke="black" points="230.89,-140.59 234.39,-150.59 237.89,-140.59 230.89,-140.59"/>
</g>
</g>
</svg>
