<?xml version="1.0" encoding="UTF-8" standalone="no"?>
<!DOCTYPE svg PUBLIC "-//W3C//DTD SVG 1.1//EN"
 "http://www.w3.org/Graphics/SVG/1.1/DTD/svg11.dtd">
<!-- Generated by graphviz version 2.47.0 (20210316.0004)
 -->
<!-- Title: dependencies Pages: 1 -->
<svg width="1342pt" height="211pt"
 viewBox="0.00 0.00 1342.00 211.00" xmlns="http://www.w3.org/2000/svg" xmlns:xlink="http://www.w3.org/1999/xlink">
<g id="graph0" class="graph" transform="scale(1 1) rotate(0) translate(4 207)">
<title>dependencies</title>
<polygon fill="white" stroke="transparent" points="-4,4 -4,-207 1338,-207 1338,4 -4,4"/>
<text text-anchor="start" x="646.01" y="-42.4" font-family="sans-serif" font-weight="bold" font-size="14.00">Legend</text>
<polygon fill="#ffffb3" stroke="transparent" points="433,-10 433,-30 453,-30 453,-10 433,-10"/>
<text text-anchor="start" x="456.63" y="-15.4" font-family="sans-serif" font-size="14.00"> &#160;Declarations</text>
<polygon fill="#8dd3c7" stroke="transparent" points="546,-10 546,-30 566,-30 566,-10 546,-10"/>
<text text-anchor="start" x="569.73" y="-15.4" font-family="sans-serif" font-size="14.00"> &#160;Module</text>
<polygon fill="#80b1d3" stroke="transparent" points="632,-10 632,-30 652,-30 652,-10 632,-10"/>
<text text-anchor="start" x="655.78" y="-15.4" font-family="sans-serif" font-size="14.00"> &#160;Bootstrap</text>
<polygon fill="#fdb462" stroke="transparent" points="729,-10 729,-30 749,-30 749,-10 729,-10"/>
<text text-anchor="start" x="752.67" y="-15.4" font-family="sans-serif" font-size="14.00"> &#160;Providers</text>
<polygon fill="#fb8072" stroke="transparent" points="825,-10 825,-30 845,-30 845,-10 825,-10"/>
<text text-anchor="start" x="848.73" y="-15.4" font-family="sans-serif" font-size="14.00"> &#160;Exports</text>
<g id="clust1" class="cluster">
<title>cluster_AppModule</title>
<polygon fill="none" stroke="black" stroke-dasharray="1,5" points="8,-70 8,-195 1326,-195 1326,-70 8,-70"/>
</g>
<g id="clust6" class="cluster">
<title>cluster_AppModule_providers</title>
<polygon fill="none" stroke="black" points="1188,-78 1188,-130 1318,-130 1318,-78 1188,-78"/>
</g>
<g id="clust3" class="cluster">
<title>cluster_AppModule_imports</title>
<polygon fill="none" stroke="black" points="16,-78 16,-130 1180,-130 1180,-78 16,-78"/>
</g>
<!-- AirlinesModule -->
<g id="node1" class="node">
<title>AirlinesModule</title>
<polygon fill="#8dd3c7" stroke="black" points="1172.15,-122 1169.15,-126 1148.15,-126 1145.15,-122 1067.85,-122 1067.85,-86 1172.15,-86 1172.15,-122"/>
<text text-anchor="middle" x="1120" y="-99.8" font-family="Times,serif" font-size="14.00">AirlinesModule</text>
</g>
<!-- AppModule -->
<g id="node11" class="node">
<title>AppModule</title>
<polygon fill="#8dd3c7" stroke="black" points="686.66,-187 683.66,-191 662.66,-191 659.66,-187 603.34,-187 603.34,-151 686.66,-151 686.66,-187"/>
<text text-anchor="middle" x="645" y="-164.8" font-family="Times,serif" font-size="14.00">AppModule</text>
</g>
<!-- AirlinesModule&#45;&gt;AppModule -->
<g id="edge1" class="edge">
<title>AirlinesModule&#45;&gt;AppModule</title>
<path fill="none" stroke="black" d="M1120,-122.28C1120,-143.32 1120,-175 1120,-175 1120,-175 696.74,-175 696.74,-175"/>
<polygon fill="black" stroke="black" points="696.74,-171.5 686.74,-175 696.74,-178.5 696.74,-171.5"/>
</g>
<!-- AirplanesModule -->
<g id="node2" class="node">
<title>AirplanesModule</title>
<polygon fill="#8dd3c7" stroke="black" points="1049.97,-122 1046.97,-126 1025.97,-126 1022.97,-122 936.03,-122 936.03,-86 1049.97,-86 1049.97,-122"/>
<text text-anchor="middle" x="993" y="-99.8" font-family="Times,serif" font-size="14.00">AirplanesModule</text>
</g>
<!-- AirplanesModule&#45;&gt;AppModule -->
<g id="edge2" class="edge">
<title>AirplanesModule&#45;&gt;AppModule</title>
<path fill="none" stroke="black" d="M993,-122.11C993,-141.34 993,-169 993,-169 993,-169 696.98,-169 696.98,-169"/>
<polygon fill="black" stroke="black" points="696.98,-165.5 686.98,-169 696.98,-172.5 696.98,-165.5"/>
</g>
<!-- AirportsModule -->
<g id="node3" class="node">
<title>AirportsModule</title>
<polygon fill="#8dd3c7" stroke="black" points="918.2,-122 915.2,-126 894.2,-126 891.2,-122 811.8,-122 811.8,-86 918.2,-86 918.2,-122"/>
<text text-anchor="middle" x="865" y="-99.8" font-family="Times,serif" font-size="14.00">AirportsModule</text>
</g>
<!-- AirportsModule&#45;&gt;AppModule -->
<g id="edge3" class="edge">
<title>AirportsModule&#45;&gt;AppModule</title>
<path fill="none" stroke="black" d="M865,-122.02C865,-139.37 865,-163 865,-163 865,-163 696.9,-163 696.9,-163"/>
<polygon fill="black" stroke="black" points="696.9,-159.5 686.9,-163 696.9,-166.5 696.9,-159.5"/>
</g>
<!-- AuthModule -->
<g id="node4" class="node">
<title>AuthModule</title>
<polygon fill="#8dd3c7" stroke="black" points="793.55,-122 790.55,-126 769.55,-126 766.55,-122 706.45,-122 706.45,-86 793.55,-86 793.55,-122"/>
<text text-anchor="middle" x="750" y="-99.8" font-family="Times,serif" font-size="14.00">AuthModule</text>
</g>
<!-- AuthModule&#45;&gt;AppModule -->
<g id="edge4" class="edge">
<title>AuthModule&#45;&gt;AppModule</title>
<path fill="none" stroke="black" d="M750,-122.24C750,-137.57 750,-157 750,-157 750,-157 696.8,-157 696.8,-157"/>
<polygon fill="black" stroke="black" points="696.8,-153.5 686.8,-157 696.8,-160.5 696.8,-153.5"/>
</g>
<!-- FilesModule -->
<g id="node5" class="node">
<title>FilesModule</title>
<polygon fill="#8dd3c7" stroke="black" points="688.27,-122 685.27,-126 664.27,-126 661.27,-122 601.73,-122 601.73,-86 688.27,-86 688.27,-122"/>
<text text-anchor="middle" x="645" y="-99.8" font-family="Times,serif" font-size="14.00">FilesModule</text>
</g>
<!-- FilesModule&#45;&gt;AppModule -->
<g id="edge5" class="edge">
<title>FilesModule&#45;&gt;AppModule</title>
<path fill="none" stroke="black" d="M645,-122.11C645,-122.11 645,-140.99 645,-140.99"/>
<polygon fill="black" stroke="black" points="641.5,-140.99 645,-150.99 648.5,-140.99 641.5,-140.99"/>
</g>
<!-- FlightsModule -->
<g id="node6" class="node">
<title>FlightsModule</title>
<polygon fill="#8dd3c7" stroke="black" points="583.45,-122 580.45,-126 559.45,-126 556.45,-122 484.55,-122 484.55,-86 583.45,-86 583.45,-122"/>
<text text-anchor="middle" x="534" y="-99.8" font-family="Times,serif" font-size="14.00">FlightsModule</text>
</g>
<!-- FlightsModule&#45;&gt;AppModule -->
<g id="edge6" class="edge">
<title>FlightsModule&#45;&gt;AppModule</title>
<path fill="none" stroke="black" d="M534,-122.24C534,-137.57 534,-157 534,-157 534,-157 593.04,-157 593.04,-157"/>
<polygon fill="black" stroke="black" points="593.04,-160.5 603.04,-157 593.04,-153.5 593.04,-160.5"/>
</g>
<!-- SeatsModule -->
<g id="node7" class="node">
<title>SeatsModule</title>
<polygon fill="#8dd3c7" stroke="black" points="466.6,-122 463.6,-126 442.6,-126 439.6,-122 377.4,-122 377.4,-86 466.6,-86 466.6,-122"/>
<text text-anchor="middle" x="422" y="-99.8" font-family="Times,serif" font-size="14.00">SeatsModule</text>
</g>
<!-- SeatsModule&#45;&gt;AppModule -->
<g id="edge7" class="edge">
<title>SeatsModule&#45;&gt;AppModule</title>
<path fill="none" stroke="black" d="M422,-122.02C422,-139.37 422,-163 422,-163 422,-163 593.32,-163 593.32,-163"/>
<polygon fill="black" stroke="black" points="593.32,-166.5 603.32,-163 593.32,-159.5 593.32,-166.5"/>
</g>
<!-- SectionsModule -->
<g id="node8" class="node">
<title>SectionsModule</title>
<polygon fill="#8dd3c7" stroke="black" points="359.49,-122 356.49,-126 335.49,-126 332.49,-122 252.51,-122 252.51,-86 359.49,-86 359.49,-122"/>
<text text-anchor="middle" x="306" y="-99.8" font-family="Times,serif" font-size="14.00">SectionsModule</text>
</g>
<!-- SectionsModule&#45;&gt;AppModule -->
<g id="edge8" class="edge">
<title>SectionsModule&#45;&gt;AppModule</title>
<path fill="none" stroke="black" d="M306,-122.11C306,-141.34 306,-169 306,-169 306,-169 593.09,-169 593.09,-169"/>
<polygon fill="black" stroke="black" points="593.09,-172.5 603.09,-169 593.09,-165.5 593.09,-172.5"/>
</g>
<!-- TicketsModule -->
<g id="node9" class="node">
<title>TicketsModule</title>
<polygon fill="#8dd3c7" stroke="black" points="234.26,-122 231.26,-126 210.26,-126 207.26,-122 133.74,-122 133.74,-86 234.26,-86 234.26,-122"/>
<text text-anchor="middle" x="184" y="-99.8" font-family="Times,serif" font-size="14.00">TicketsModule</text>
</g>
<!-- TicketsModule&#45;&gt;AppModule -->
<g id="edge9" class="edge">
<title>TicketsModule&#45;&gt;AppModule</title>
<path fill="none" stroke="black" d="M184,-122.28C184,-143.32 184,-175 184,-175 184,-175 593.28,-175 593.28,-175"/>
<polygon fill="black" stroke="black" points="593.28,-178.5 603.28,-175 593.28,-171.5 593.28,-178.5"/>
</g>
<!-- UsersModule -->
<g id="node10" class="node">
<title>UsersModule</title>
<polygon fill="#8dd3c7" stroke="black" points="115.92,-122 112.92,-126 91.92,-126 88.92,-122 24.08,-122 24.08,-86 115.92,-86 115.92,-122"/>
<text text-anchor="middle" x="70" y="-99.8" font-family="Times,serif" font-size="14.00">UsersModule</text>
</g>
<!-- UsersModule&#45;&gt;AppModule -->
<g id="edge10" class="edge">
<title>UsersModule&#45;&gt;AppModule</title>
<path fill="none" stroke="black" d="M70,-122.09C70,-145.13 70,-182 70,-182 70,-182 593.18,-182 593.18,-182"/>
<polygon fill="black" stroke="black" points="593.18,-185.5 603.18,-182 593.18,-178.5 593.18,-185.5"/>
</g>
<!-- AppService -->
<g id="node12" class="node">
<title>AppService</title>
<ellipse fill="#fdb462" stroke="black" cx="1253" cy="-104" rx="56.74" ry="18"/>
<text text-anchor="middle" x="1253" y="-99.8" font-family="Times,serif" font-size="14.00">AppService</text>
</g>
<!-- AppService&#45;&gt;AppModule -->
<g id="edge11" class="edge">
<title>AppService&#45;&gt;AppModule</title>
<path fill="none" stroke="black" d="M1253,-122.09C1253,-145.13 1253,-182 1253,-182 1253,-182 696.79,-182 696.79,-182"/>
<polygon fill="black" stroke="black" points="696.79,-178.5 686.79,-182 696.79,-185.5 696.79,-178.5"/>
</g>
</g>
</svg>
